<svg xmlns="http://www.w3.org/2000/svg" width="48" height="48" viewBox="0 0 48 48" fill="none">
  <defs>
    <linearGradient id="brand-grad" x1="0" y1="48" x2="48" y2="0" gradientUnits="userSpaceOnUse">
      <stop offset="0%" stop-color="#10b981" />
      <stop offset="100%" stop-color="#2dd4bf" />
    </linearGradient>
  </defs>
  <!-- Rounded background box -->
  <rect width="48" height="48" rx="12" fill="url(#brand-grad)" />
  <!-- Shield Icon scaled at 75% inside the 48x48 canvas -->
  <g transform="translate(6, 5.82) scale(1.5)" stroke="#020617" stroke-width="2.6" stroke-linecap="round" stroke-linejoin="round">
    <path d="M20 13c0 5-3.5 7.5-7.66 8.95a1 1 0 0 1-.67-.01C7.5 20.5 4 18 4 13V6a1 1 0 0 1 1-1c2 0 4.5-1.2 6.24-2.72a1.17 1.17 0 0 1 1.52 0C14.51 3.81 17 5 19 5a1 1 0 0 1 1 1z" />
  </g>
</svg>